<svg version="1.1" id="Layer_1" xmlns="http://www.w3.org/2000/svg" xmlns:xlink="http://www.w3.org/1999/xlink" x="0px" y="0px" viewBox="0 0 486 178.5" style="enable-background:new 0 0 486 178.5;" xml:space="preserve">
<style type="text/css">
	.st0{fill:#D8D8D8;}
	.st1{fill:#EAEAEA;}
	.st2{fill:#E4837A;}
	.st3{fill:#081622;}
	.st4{fill:#005BFF;}
	.st5{fill:#E2857E;}
	.st6{opacity:0.9;}
	.st7{fill:#FFFFFF;}
	.st8{opacity:0.2;fill:#FFFFFF;}
</style>
<g id="XMLID_104_">
	<g id="XMLID_213_">
		<path id="XMLID_84_" class="st0" d="M219.3,154.3c0,2.5-2,4.6-4.6,4.6H138c-2.5,0-10.6,0-13.1-3c-1.8-25.1-5.4-75.9-5.4-91.2    c0-2.3,1.9-4.2,4.3-4.2h71.9c2.4,0,4.3,1.9,4.3,4.2L219.3,154.3z"/>
		<path id="XMLID_83_" class="st1" d="M225.3,154.3c0,2.5-2,4.6-4.6,4.6H144c-2.5,0-10.6,6.1-10.6,3.6c0,0-8.3-77.3-8.3-97.9    c0-2.3,1.9-4.2,4.3-4.2h71.9c2.4,0,4.3,1.9,4.3,4.2L225.3,154.3z"/>
	</g>
	<g id="XMLID_191_">
		<g id="XMLID_198_">
			<g id="XMLID_199_">
				<g id="XMLID_200_">
					<g id="XMLID_201_">
						<g id="XMLID_202_">
							<g id="XMLID_203_">
								<g id="XMLID_204_">
									<g id="_x30_1_3_x2F_4_3_">
										<g id="XMLID_205_">
											<g id="head_16_">
												<path id="XMLID_82_" class="st2" d="M180.2,17.9c-7.7-2.8-19.7,1.6-22.4,10.7c-2.7,9.1-6.1,25-0.5,27.7              c2.5,1.2,12.5,1.3,12.5,1.3L167,69l17.2,1.8l-0.7-16.7C183.4,54.2,205.5,27.2,180.2,17.9z"/>
												<path id="XMLID_81_" class="st3" d="M160.8,23.3c0,0,8.2,2.6,9.5,7.4c1.3,4.8-0.6,13.9,4.6,6.2c2.5-3.7,5.6-2.4,7,1              c1.7,4.2-3.4,7.1-3.1,8.4c0.3,1.4,3.7,7.6,4.7,7.8c1,0.3,13.2-15.4,9.6-26.9C189.6,16.5,165.6,10.5,160.8,23.3z"/>
												<path id="XMLID_80_" class="st3" d="M160.8,23.3c0,0-7.4-8.7-5.4-11c1.2-1.4,5.7,3.8,7.1,2.5c1.1-1-2.8-4.7-1.8-5.8              c5.5-5.7,28.8,7.4,28.8,13.2C189.6,28,160.8,23.3,160.8,23.3z"/>
											</g>
										</g>
									</g>
								</g>
							</g>
						</g>
					</g>
				</g>
			</g>
		</g>
		<g id="male_10_">
			<g id="XMLID_193_">
				<g id="XMLID_102_">
					<path id="XMLID_103_" class="st4" d="M235.9,140.5c-1.5-6-18.5-55.6-22.6-61.1c-3.5-4.8-22.6-11.5-29.4-13.8       c-4.4,3.8-12.4,4-16.1,0.3c-6,2.1-20.4,6.9-24.5,10.3c-9.1,7.8-29.5,40.6-35.5,59.9c-3.2,10.2,13.7,22.5,27.1,28.6       c0,0-0.3,0-0.7,3.1c1.7,0.5,79.2-1.4,79.2-1.4C219.6,163.5,241.3,162,235.9,140.5z"/>
				</g>
			</g>
			<path id="XMLID_78_" class="st5" d="M145.8,138.1c1.1,0.7,3.7,6.4,4.2,7.4c0.6,1.4-1.2,3.7-3.2,1.5c-1.6-1.7-3.2-3.4-3.2-3.4     s3.1,5.7,3.8,6.8c0.7,1.1,1,3,0.3,3.6c-1.2,1-2.7,0.3-3.6-0.9c-0.9-1.2-4.6-5.4-4.6-5.4l4.2,7.7c0,0,0.8,1.8-0.5,2.7     c-1.7,1.1-2.8-0.9-3.4-1.9c-0.7-1-4.3-5.7-4.3-5.7L135,151c0,0,3.6,4,4.1,5.3c0.4,1.2-0.8,2.1-2.3,1.5c-1-0.4-4.4-3.5-4.4-3.5     s-1.9-0.2-2.8-0.5c-0.8-0.3-1.6-0.9-2-1.5c-0.4-0.6,0.1-5.5,3.1-8.1c3-2.6,5.2-3.9,8-4.8C141.4,138.6,144.4,137.2,145.8,138.1z"/>
		</g>
	</g>
	<g id="XMLID_105_">
		<g id="XMLID_174_">
			<g id="XMLID_183_" class="st6">
				<rect id="XMLID_77_" x="271.4" y="141.2" class="st1" width="55.9" height="22"/>
				<polygon id="XMLID_76_" class="st0" points="323.5,134.1 323.5,134.1 267.6,134.1 267.6,141.2 323.5,141.2     "/>
				<rect id="XMLID_75_" x="271.4" y="117.5" class="st1" width="55.9" height="16.6"/>
				<rect id="XMLID_74_" x="271.4" y="119.2" class="st7" width="55.9" height="1.2"/>
				<rect id="XMLID_73_" x="271.4" y="123.9" class="st0" width="55.9" height="4.5"/>
				<rect id="XMLID_72_" x="271.4" y="147.2" class="st7" width="55.9" height="2.3"/>
				<rect id="XMLID_71_" x="271.4" y="158.4" class="st0" width="55.9" height="1.1"/>
			</g>
			<g id="XMLID_175_">
				<rect id="XMLID_70_" x="257.7" y="141.2" class="st1" width="55.9" height="22"/>
				<polygon id="XMLID_69_" class="st0" points="309.8,134.1 309.8,134.1 253.9,134.1 253.9,141.2 309.8,141.2     "/>
				<rect id="XMLID_68_" x="257.7" y="117.5" class="st1" width="55.9" height="16.6"/>
				<rect id="XMLID_67_" x="257.7" y="119.2" class="st7" width="55.9" height="1.2"/>
				<rect id="XMLID_66_" x="257.7" y="123.9" class="st0" width="55.9" height="4.5"/>
				<rect id="XMLID_65_" x="257.7" y="147.2" class="st7" width="55.9" height="2.3"/>
				<rect id="XMLID_64_" x="257.7" y="158.4" class="st0" width="55.9" height="1.1"/>
			</g>
		</g>
		<g id="XMLID_170_">
			<g id="laptop_4_">
				<polygon id="XMLID_63_" class="st0" points="234.2,163.2 152,163.2 171.9,110.3 254,110.3     "/>
				<polygon id="XMLID_62_" class="st0" points="157,163.2 122.9,163.2 122.9,161.7 157,160.2     "/>
			</g>
			<path id="XMLID_61_" class="st7" d="M209.9,138.2c-1.5,3.7-5.1,6-8,5.3c-2.9-0.8-4-4.3-2.4-8c1.5-3.7,5.1-6,8-5.3     C210.3,131,211.4,134.5,209.9,138.2z"/>
		</g>
		<g id="XMLID_115_">
			<g id="XMLID_143_" class="st6">
				<g id="XMLID_157_">
					<g id="XMLID_159_">
						<rect id="XMLID_60_" x="39.5" y="105.8" class="st1" width="55.9" height="18.4"/>
						<polygon id="XMLID_59_" class="st0" points="43.3,137.6 43.3,137.7 99.3,137.7 99.3,124.2 43.3,124.2       "/>
						<rect id="XMLID_58_" x="39.5" y="137.7" class="st1" width="55.9" height="20.4"/>
						<rect id="XMLID_57_" x="39.5" y="152.7" class="st7" width="55.9" height="1.3"/>
						<rect id="XMLID_56_" x="39.5" y="143.9" class="st0" width="55.9" height="5"/>
						<rect id="XMLID_55_" x="39.5" y="115" class="st7" width="55.9" height="2.5"/>
						<rect id="XMLID_54_" x="39.5" y="109.9" class="st0" width="55.9" height="1.2"/>
						<g id="XMLID_160_">
							<rect id="XMLID_53_" x="39.5" y="94.1" class="st1" width="55.9" height="6.7"/>
							<rect id="XMLID_52_" x="34.9" y="100.8" class="st0" width="55.9" height="5"/>
						</g>
					</g>
					<rect id="XMLID_51_" x="34.9" y="158" class="st7" width="55.9" height="5.1"/>
				</g>
				<g id="XMLID_144_">
					<g id="XMLID_146_">
						<rect id="XMLID_50_" x="41" y="41.1" class="st1" width="55.9" height="19.8"/>
						<polygon id="XMLID_49_" class="st0" points="44.9,68.6 44.9,68.7 100.8,68.7 100.8,60.9 44.9,60.9       "/>
						<rect id="XMLID_48_" x="41" y="68.7" class="st1" width="55.9" height="20.4"/>
						<rect id="XMLID_47_" x="41" y="83.7" class="st7" width="55.9" height="1.3"/>
						<rect id="XMLID_46_" x="41" y="74.9" class="st0" width="55.9" height="5"/>
						<rect id="XMLID_45_" x="41" y="50.3" class="st7" width="55.9" height="2.5"/>
						<rect id="XMLID_44_" x="41" y="45.2" class="st0" width="55.9" height="1.2"/>
						<g id="XMLID_147_">
							<rect id="XMLID_43_" x="41" y="29.4" class="st1" width="55.9" height="6.7"/>
							<rect id="XMLID_42_" x="36.4" y="36" class="st0" width="55.9" height="5"/>
						</g>
					</g>
					<rect id="XMLID_41_" x="36.4" y="89" class="st7" width="55.9" height="5.1"/>
				</g>
			</g>
			<g id="XMLID_116_">
				<g id="XMLID_130_">
					<g id="XMLID_132_">
						<rect id="XMLID_40_" x="25.8" y="105.8" class="st1" width="55.9" height="18.4"/>
						<polygon id="XMLID_39_" class="st0" points="29.6,137.6 29.6,137.7 85.6,137.7 85.6,124.2 29.6,124.2       "/>
						<rect id="XMLID_38_" x="25.8" y="137.7" class="st1" width="55.9" height="20.4"/>
						<rect id="XMLID_37_" x="25.8" y="152.7" class="st7" width="55.9" height="1.3"/>
						<rect id="XMLID_36_" x="25.8" y="143.9" class="st0" width="55.9" height="5"/>
						<rect id="XMLID_35_" x="25.8" y="115" class="st7" width="55.9" height="2.5"/>
						<rect id="XMLID_34_" x="25.8" y="109.9" class="st0" width="55.9" height="1.2"/>
						<g id="XMLID_133_">
							<rect id="XMLID_33_" x="25.8" y="94.1" class="st1" width="55.9" height="6.7"/>
							<rect id="XMLID_32_" x="21.2" y="100.8" class="st0" width="55.9" height="5"/>
						</g>
					</g>
					<rect id="XMLID_31_" x="21.2" y="158" class="st7" width="55.9" height="5.1"/>
				</g>
				<g id="XMLID_117_">
					<g id="XMLID_119_">
						<rect id="XMLID_30_" x="27.3" y="41.1" class="st1" width="55.9" height="19.8"/>
						<polygon id="XMLID_29_" class="st0" points="31.2,68.6 31.2,68.7 87.1,68.7 87.1,60.9 31.2,60.9       "/>
						<rect id="XMLID_28_" x="27.3" y="68.7" class="st1" width="55.9" height="20.4"/>
						<rect id="XMLID_27_" x="27.3" y="83.7" class="st7" width="55.9" height="1.3"/>
						<rect id="XMLID_26_" x="27.3" y="74.9" class="st0" width="55.9" height="5"/>
						<rect id="XMLID_25_" x="27.3" y="50.3" class="st7" width="55.9" height="2.5"/>
						<rect id="XMLID_24_" x="27.3" y="45.2" class="st0" width="55.9" height="1.2"/>
						<g id="XMLID_120_">
							<rect id="XMLID_23_" x="27.3" y="29.4" class="st1" width="55.9" height="6.7"/>
							<rect id="XMLID_22_" x="22.7" y="36" class="st0" width="55.9" height="5"/>
						</g>
					</g>
					<rect id="XMLID_21_" x="22.7" y="89" class="st7" width="55.9" height="5.1"/>
				</g>
			</g>
		</g>
		<g id="XMLID_108_">
			<path id="XMLID_112_" class="st4" d="M290.9,113.5c-4,0-7.3-3.3-7.3-7.3c0-4.2,3.7-4.2,5.7-4.2c0.2,0,0.5,0,0.8,0     c0.5,0,1.1,0,1.6,0c0.3,0,0.5,0,0.8,0c1.3,0,2.7,0,3.8,0.6c1.3,0.7,1.9,1.9,1.9,3.6C298.2,110.2,294.9,113.5,290.9,113.5z      M289.4,104.4c-3.1,0-3.4,0.5-3.4,1.9c0,2.7,2.2,4.9,4.9,4.9c2.7,0,4.9-2.2,4.9-4.9c0-1.5-0.4-1.9-3.3-1.9c-0.2,0-0.5,0-0.7,0     c-0.5,0-1.1,0-1.7,0C289.9,104.4,289.6,104.4,289.4,104.4z"/>
			<path id="XMLID_16_" class="st4" d="M291.1,113.6c0,2.2-1.8,3.9-3.9,3.9h-10.8c-2.2,0-3.9-1.8-3.9-3.9V98.7h18.7V113.6z"/>
			<path id="XMLID_15_" class="st8" d="M281.2,110.4c0,1.6-1.3,3-3,3l0,0c-1.6,0-3-1.3-3-3V99h5.9V110.4z"/>
			<path id="XMLID_13_" class="st4" d="M292.1,99c0,0.6-0.5,1-1,1h-18.6c-0.6,0-1-0.5-1-1l0,0c0-0.6,0.5-1,1-1h18.6     C291.7,98,292.1,98.4,292.1,99L292.1,99z"/>
		</g>
		<g id="XMLID_106_">
			<rect id="XMLID_12_" x="12.4" y="163.2" class="st4" width="467.6" height="6.2"/>
		</g>
	</g>
</g>
<rect id="XMLID_11_" x="339" y="142.8" class="st1" width="55.9" height="19.8"/>
<rect id="XMLID_10_" x="339" y="152.1" class="st7" width="55.9" height="2.5"/>
<rect id="XMLID_9_" x="339" y="146.9" class="st0" width="55.9" height="1.2"/>
<g id="XMLID_95_">
	<rect id="XMLID_8_" x="339" y="131.1" class="st1" width="55.9" height="6.7"/>
	<rect id="XMLID_7_" x="334.4" y="137.8" class="st0" width="55.9" height="5"/>
</g>
<g id="XMLID_17_">
	<rect id="XMLID_6_" x="410.4" y="131.1" class="st1" width="55.9" height="18.4"/>
	<polygon id="XMLID_5_" class="st0" points="414.3,163 414.3,163 470.2,163 470.2,149.5 414.3,149.5  "/>
	<rect id="XMLID_4_" x="410.4" y="140.4" class="st7" width="55.9" height="2.5"/>
	<rect id="XMLID_3_" x="410.4" y="135.2" class="st0" width="55.9" height="1.2"/>
	<g id="XMLID_18_">
		<rect id="XMLID_2_" x="410.4" y="119.4" class="st1" width="55.9" height="6.7"/>
		<rect id="XMLID_1_" x="405.8" y="126.1" class="st0" width="55.9" height="5"/>
	</g>
</g>
<script xmlns=""/></svg>
